<?xml version="1.0" standalone="no"?>
<!DOCTYPE svg PUBLIC "-//W3C//DTD SVG 20010904//EN"
 "http://www.w3.org/TR/2001/REC-SVG-20010904/DTD/svg10.dtd">
<svg version="1.0" xmlns="http://www.w3.org/2000/svg"
 width="700.000000pt" height="700.000000pt" viewBox="0 0 700.000000 700.000000"
 preserveAspectRatio="xMidYMid meet">
<metadata>
Created by potrace 1.11, written by Peter Selinger 2001-2013
</metadata>
<g transform="translate(0.000000,700.000000) scale(0.100000,-0.100000)"
fill="#000000" stroke="none">
<path d="M3448 6865 c-2 -2 -17 -6 -34 -9 -81 -15 -183 -79 -238 -152 -19 -24
-57 -101 -86 -172 -28 -70 -57 -140 -65 -157 -7 -16 -54 -129 -105 -250 -94
-226 -153 -367 -175 -420 -19 -45 -112 -269 -152 -365 -19 -47 -41 -98 -48
-115 -10 -22 -373 -891 -402 -961 -9 -24 255 -163 440 -233 56 -21 145 -50
197 -65 52 -15 100 -29 106 -31 6 -2 31 42 54 98 24 56 51 120 61 142 9 22 97
231 194 465 97 234 183 439 190 455 7 17 32 75 55 130 22 55 44 103 48 107 6
6 132 -302 242 -592 24 -64 172 -442 286 -730 53 -135 102 -262 109 -282 l14
-37 -57 -12 c-31 -6 -61 -12 -67 -14 -5 -1 -32 -5 -60 -9 -27 -4 -61 -10 -75
-12 -75 -13 -197 -19 -375 -19 -229 0 -329 7 -482 35 -149 27 -140 25 -284 65
-416 113 -818 336 -1138 630 -144 132 -250 251 -412 463 -99 131 -192 187
-325 196 -142 10 -274 -57 -362 -184 -46 -67 -66 -148 -59 -241 6 -98 34 -161
124 -283 441 -597 1030 -1036 1718 -1281 261 -93 472 -141 825 -190 56 -7 307
-19 405 -19 104 1 309 12 344 19 14 2 50 7 80 9 66 6 279 42 336 58 22 5 51
12 65 15 14 2 40 8 59 13 19 5 36 8 38 7 2 -3 410 -1042 483 -1232 22 -55 65
-167 98 -250 32 -82 123 -314 201 -515 79 -201 149 -378 156 -395 7 -16 25
-61 39 -100 77 -201 222 -304 422 -301 78 1 97 5 154 32 155 75 240 216 235
385 -3 67 -12 99 -85 290 -45 118 -88 228 -96 244 -7 17 -130 331 -274 700
-144 369 -315 805 -380 970 -160 407 -180 459 -180 467 0 3 30 23 68 44 174
97 400 253 567 393 119 100 333 314 425 426 41 50 77 92 80 95 3 3 30 39 60
80 30 41 57 77 60 80 16 13 59 100 69 136 82 304 -161 573 -459 508 -121 -26
-189 -73 -278 -193 -117 -156 -188 -239 -317 -366 -148 -147 -286 -257 -458
-369 l-117 -76 -11 27 c-6 16 -53 138 -106 273 -52 135 -115 297 -140 360 -24
63 -48 124 -53 135 -5 11 -100 252 -210 535 -110 283 -204 524 -209 535 -5 11
-36 90 -69 175 -271 700 -266 689 -392 771 -25 17 -68 37 -97 45 -49 14 -167
27 -175 19z"/>
<path d="M1636 3042 c-2 -4 -20 -47 -40 -97 -21 -49 -44 -104 -52 -122 -7 -17
-14 -34 -14 -37 0 -3 -12 -31 -26 -63 -14 -32 -30 -68 -35 -80 -5 -13 -13 -33
-19 -45 -50 -119 -140 -341 -149 -370 -31 -95 -12 -238 44 -335 36 -62 105
-127 164 -158 43 -21 61 -26 144 -39 89 -15 245 44 324 120 67 66 76 83 187
354 54 129 101 244 106 255 6 11 35 81 66 155 31 74 58 140 60 146 4 8 -60 36
-116 49 -3 1 -12 4 -20 8 -8 3 -36 13 -61 21 -99 32 -241 92 -396 166 -90 43
-165 75 -167 72z"/>
</g>
</svg>
